# xmcd CD database file
#
# Track frame offsets:
#	150
#	1460
#	24610
#	42617
#	61605
#	80075
#	103710
#	106425
#	129967
#	148962
#	167540
#
# Disc length: 2551 seconds
#
# Revision: 2
# Processed by: cddbd v1.5.2PL0 Copyright (c) Steve Scherf et al.
# Submitted via: CDex 1.70beta3
#
DISCID=9109f50b
DTITLE=大橋利恵 - Realize
DYEAR=1900
DGENRE=Pop
TTITLE0=Prologue
TTITLE1=Sleepless Summer
TTITLE2=Shiny Lucky Lady
TTITLE3=今日はHoliday
TTITLE4=Everybody,Shake Up!
TTITLE5=Believin' Your Love
TTITLE6=Someone loves you
TTITLE7=Walking In The Hard Rain
TTITLE8=Close To You
TTITLE9=Let's Make Love
TTITLE10=夏の果てには
EXTD=
EXTT0=
EXTT1=
EXTT2=
EXTT3=
EXTT4=
EXTT5=
EXTT6=
EXTT7=
EXTT8=
EXTT9=
EXTT10=
PLAYORDER=
